<mxfile host="app.diagrams.net" modified="2022-03-24T20:24:54.701Z" agent="5.0 (X11)" etag="crSbfdVrxPeFthGZuX6h" version="15.0.3" type="github">
  <diagram id="zNUnhzf_3ryz4yMKdnoP" name="Page-1">
    <mxGraphModel dx="1422" dy="731" grid="1" gridSize="10" guides="1" tooltips="1" connect="1" arrows="1" fold="1" page="1" pageScale="1" pageWidth="850" pageHeight="1100" math="0" shadow="0">
      <root>
        <mxCell id="0" />
        <mxCell id="1" parent="0" />
        <mxCell id="E6hOL01ywgg8zI464BMU-1" value="" style="rounded=0;whiteSpace=wrap;html=1;" vertex="1" parent="1">
          <mxGeometry x="240" y="320" width="1100" height="373" as="geometry" />
        </mxCell>
      </root>
    </mxGraphModel>
  </diagram>
</mxfile>
